PathFileType	4	(X/Y/Z)	C:\Users\Basilio\Documents\Thesis Gigler\squatting_fais\c3dfiles\039\SLS_pre_back2\markers_experimental.trc
DataRate	CameraRate	NumFrames	NumMarkers	Units	OrigDataRate	OrigDataStartFrame	OrigNumFrames
200.000000	200.000000	4	63	mm	200.000000	1473	1684
Frame#	Time	FHD			LBHD			RBHD			C7			T10			LSHO			LUUPA			LMUPA			LDUPA			LLEP			LMEP			LRAD			LUL			LRFIN			RSHO			RUPA1			RMUPA			RDUPA			RLEP			RMEP			RRAD			RUL			RUFIN			LASI			RASI			USACR			LSACR			RSACR			LTHI1			LTHI2			LTHI3			LTHI4			LMFC			LTIB1			LTIB2			LTIB3			LTIB4			LLMAL			LMMAL			LHEE			LMT1			LMT2			LMT5			RTHI			RTHI2			RTHI3			RTHI4			RLFC			RMFC			RTIB1			RTIB2			RTIB3			RTIB4			RLMAL			RMMAL			RHEE			RMT1			RMT2			RMT5			LLFC			CLAV			*61			*62			
		X1	Y1	Z1	X2	Y2	Z2	X3	Y3	Z3	X4	Y4	Z4	X5	Y5	Z5	X6	Y6	Z6	X7	Y7	Z7	X8	Y8	Z8	X9	Y9	Z9	X10	Y10	Z10	X11	Y11	Z11	X12	Y12	Z12	X13	Y13	Z13	X14	Y14	Z14	X15	Y15	Z15	X16	Y16	Z16	X17	Y17	Z17	X18	Y18	Z18	X19	Y19	Z19	X20	Y20	Z20	X21	Y21	Z21	X22	Y22	Z22	X23	Y23	Z23	X24	Y24	Z24	X25	Y25	Z25	X26	Y26	Z26	X27	Y27	Z27	X28	Y28	Z28	X29	Y29	Z29	X30	Y30	Z30	X31	Y31	Z31	X32	Y32	Z32	X33	Y33	Z33	X34	Y34	Z34	X35	Y35	Z35	X36	Y36	Z36	X37	Y37	Z37	X38	Y38	Z38	X39	Y39	Z39	X40	Y40	Z40	X41	Y41	Z41	X42	Y42	Z42	X43	Y43	Z43	X44	Y44	Z44	X45	Y45	Z45	X46	Y46	Z46	X47	Y47	Z47	X48	Y48	Z48	X49	Y49	Z49	X50	Y50	Z50	X51	Y51	Z51	X52	Y52	Z52	X53	Y53	Z53	X54	Y54	Z54	X55	Y55	Z55	X56	Y56	Z56	X57	Y57	Z57	X58	Y58	Z58	X59	Y59	Z59	X60	Y60	Z60	X61	Y61	Z61	X62	Y62	Z62	X63	Y63	Z63	

1474	7.365	-210.0802459716797	1775.222045898438	-650.2084350585939	-370.3836975097657	1754.888305664063	-768.4766235351565	-341.6735839843751	1757.368896484375	-629.9218139648439	-413.9047241210939	1582.968139648438	-706.6904907226564	-428.0185852050782	1275.88623046875	-744.4532470703126	-347.2863464355469	1596.430908203125	-869.770690917969	-189.1263427734375	1553.542602539063	-989.3311767578127	-164.0791931152344	1588.008422851563	-961.977966308594	-119.9458084106446	1563.522583007813	-994.1486816406252	-52.83997726440431	1572.764404296875	-993.446472167969	-46.19227600097657	1502.1591796875	-959.0444946289065	227.125473022461	1604.993041992188	-905.967224121094	225.6782226562501	1614.709838867188	-981.9012451171877	298.7993469238282	1654.685180664063	-898.4538574218752	-289.1644592285157	1565.62060546875	-544.4763183593751	-127.7288589477539	1488.275390625	-453.8365783691407	-101.7618865966797	1525.852661132813	-473.7526245117189	-58.02099227905275	1488.916259765625	-453.4105224609376	4.713475704193116	1507.5126953125	-462.6885681152345	12.06817054748536	1444.979125976563	-509.9072570800782	283.8919067382813	1576.937622070313	-561.3701171875001	291.0313720703126	1561.5517578125	-487.1123046875001	362.6167602539063	1624.650512695313	-558.8313598632814	-276.1961364746094	1099.375854492188	-892.4781494140627	-246.797103881836	1076.245971679688	-672.2681884765626	-442.8543701171876	1146.263671875	-752.6400756835939	-449.5810546875001	1115.9921875	-782.6467285156252	-441.3562622070314	1111.20556640625	-723.5317382812501	-286.5629272460938	838.6789550781252	-1005.297485351563	-231.9919433593751	776.194274902344	-1026.918579101563	-185.8304748535157	789.033630371094	-1023.534423828125	-241.6441040039063	714.7243652343751	-1020.744018554688	-172.2259826660157	580.9857177734376	-925.934997558594	-280.8005676269532	505.8736267089845	-1001.604370117188	-354.5446777343751	554.7228393554689	-1011.371337890625	-338.5264892578126	514.3690185546876	-1007.45263671875	-395.8460083007814	474.4509277343751	-954.394958496094	-581.2018432617189	460.8474121093751	-931.7441406250002	-540.9475708007814	438.4040832519532	-857.021179199219	-634.9091796875001	500.1627197265626	-869.0148925781252	-545.1929321289064	283.6433410644532	-882.5906372070315	-565.5546875000001	287.2247619628907	-920.4237060546877	-624.9041137695314	314.7295227050782	-947.1272583007815	-274.5160522460938	801.9383544921877	-628.9072265625001	-230.0252685546876	751.9635009765626	-635.5166015625001	-199.8632354736329	758.7398681640626	-645.5062866210939	-252.5044097900391	671.0095214843751	-654.1114501953126	-280.5675354003907	531.8597412109376	-688.8972167968751	-259.3639526367188	536.5700073242189	-805.9883422851565	-258.3948974609376	321.8579101562501	-731.3096923828126	-347.9117431640626	262.5054016113282	-721.6606445312501	-303.8563842773438	250.0400848388672	-725.7847290039064	-293.8671875000001	205.6873321533204	-766.1242065429689	-369.1441345214844	118.3458786010742	-744.6106567382814	-343.9368591308594	137.4617767333985	-830.550231933594	-440.8109130859376	98.61011505126956	-795.6527099609377	-215.5936737060547	51.12248992919923	-807.899841308594	-218.8792266845704	55.05352783203126	-761.5394287109376	-274.4255371093751	37.1720314025879	-710.1538696289064	-213.9878540039063	629.1416015625001	-1022.926208496094	-271.0353088378907	1524.395263671875	-720.0279541015626	nan	nan	nan	nan	nan	nan	
1475	7.37	-210.1236114501954	1775.163818359375	-650.4289550781251	-370.3958740234376	1754.80029296875	-768.667419433594	-341.7488098144532	1757.359619140625	-630.1835327148439	-414.0493774414064	1582.900756835938	-706.7592163085939	-428.0681152343751	1275.7978515625	-744.5065307617189	-347.9157104492188	1596.512084960938	-869.9921875000002	-189.4148864746094	1553.252563476563	-989.5476074218752	-164.1316070556641	1587.628540039063	-962.222595214844	-120.2244262695313	1563.280517578125	-994.3477172851565	-53.17362213134767	1572.551147460938	-993.6993408203127	-46.42510223388673	1501.93603515625	-959.2430419921877	226.6816101074219	1604.978393554688	-906.403503417969	225.4265899658204	1614.400634765625	-982.321960449219	298.4668884277344	1654.643798828125	-898.9951171875002	-289.3207702636719	1565.578735351563	-544.6608276367189	-127.8424682617188	1488.249145507813	-453.9789428710939	-101.8287658691407	1525.844848632813	-473.9353942871095	-58.12462997436525	1488.923583984375	-453.5994262695314	4.614863395690919	1507.421020507813	-462.8529663085939	11.93532371520996	1444.97119140625	-510.0497436523439	284.1365966796876	1576.720703125	-561.7982788085939	291.0068054199219	1561.856201171875	-487.1703186035157	362.4018249511719	1624.858764648438	-559.0655517578126	-276.3309020996094	1099.31982421875	-892.6365356445315	-246.8256835937501	1076.27294921875	-672.3612060546876	-442.9320373535157	1146.206787109375	-752.7091064453126	-449.5984191894532	1115.942016601563	-782.6422119140627	-441.4031677246095	1111.1103515625	-723.6561889648439	-286.2957763671876	838.5776977539065	-1005.246948242188	-231.6751403808594	776.2283935546877	-1026.779174804688	-185.4693450927735	788.9605712890627	-1023.332092285156	-241.2324371337891	714.7113647460939	-1020.541809082031	-171.6574096679688	581.0493774414064	-925.5901489257815	-280.2003784179688	505.7792358398439	-1001.299743652344	-354.0229492187501	554.5720214843751	-1011.195983886719	-338.0308837890626	514.2685546875001	-1007.213256835938	-395.3883056640626	474.3751220703126	-954.1153564453127	-580.7390747070314	461.0213012695314	-931.589294433594	-540.6369628906251	438.3001403808595	-856.9312133789065	-635.0059814453126	499.4264526367189	-868.925964355469	-543.5681762695314	283.1980285644532	-883.5869140625002	-563.7542114257814	287.1994934082032	-920.913269042969	-623.2421875000001	314.2676696777344	-948.0503540039065	-274.5166320800782	801.9008789062502	-628.9129638671876	-230.0350952148438	751.8973999023439	-635.4782104492189	-199.8372955322266	758.7063598632814	-645.4281616210939	-252.4766845703126	670.9321899414064	-654.1538696289064	-280.5016174316407	531.8375854492189	-688.8569335937501	-259.2706909179688	536.5272827148439	-805.982849121094	-258.3688049316407	321.8263549804688	-731.3536987304689	-347.9269714355469	262.4635314941407	-721.5924072265626	-303.8101196289063	249.9958038330079	-725.7739257812501	-293.8752136230469	205.5968017578126	-766.1198730468751	-369.1477661132813	118.3600997924805	-744.5899658203126	-344.1238098144532	137.1273651123047	-830.6424560546877	-440.8093566894532	98.59503173828128	-795.6322021484377	-215.5629425048829	51.14885711669923	-807.945495605469	-218.9103088378907	55.09808731079103	-761.4981689453126	-274.4714660644532	37.18920898437501	-710.1176757812501	-213.5790100097657	629.1439819335939	-1022.710876464844	-271.2969970703126	1524.478881835938	-720.3004760742189	nan	nan	nan	nan	nan	nan	
1476	7.375	-210.3951873779297	1774.926025390625	-650.9359741210939	-371.4211120605469	1754.870483398438	-769.1176757812502	-341.7783203125001	1757.345825195313	-630.4257812500001	-414.2944946289064	1582.86181640625	-706.8840942382814	-428.1109313964845	1275.651977539063	-744.5917358398439	-347.7904968261719	1596.21044921875	-870.1462402343752	-189.646484375	1553.068359375	-989.7446289062502	-164.3737945556641	1587.49267578125	-962.4771118164065	-120.4839935302735	1563.108520507813	-994.6380615234377	-53.49839019775392	1572.36962890625	-993.9296875000002	-46.7385482788086	1501.779296875	-959.4285888671877	226.2858886718751	1604.808959960938	-906.8500976562502	225.1719055175782	1614.136474609375	-982.687683105469	297.9537658691407	1654.324096679688	-899.626892089844	-289.3868103027344	1565.465576171875	-544.7978515625001	-127.9537429809571	1488.2587890625	-454.1130981445314	-101.9846954345703	1525.80712890625	-474.1270141601564	-58.25651931762697	1488.813842773438	-453.7832336425782	4.420269966125489	1507.4453125	-463.0899353027345	11.74695110321045	1445.021118164063	-510.163055419922	283.8993530273438	1576.822998046875	-562.0565185546876	290.8718261718751	1561.976684570313	-487.4397888183595	362.1881408691407	1625.003662109375	-559.3469848632814	-276.3992004394532	1099.335083007813	-892.8018798828127	-246.8003845214844	1076.191162109375	-672.3609619140626	-442.9942016601564	1146.098266601563	-752.7482299804689	-449.6624145507814	1115.810180664063	-782.7190551757815	-441.4459838867189	1111.03125	-723.7365722656251	-286.0866394042969	838.4605102539065	-1005.227233886719	-231.4360504150391	776.2135009765627	-1026.605712890625	-185.2091369628907	788.9298095703127	-1023.19921875	-240.9022979736329	714.7113037109376	-1020.355407714844	-171.6518249511719	580.8537597656251	-925.5754394531252	-280.2663269042969	506.0382690429689	-1001.164733886719	-353.7833251953126	554.4809570312501	-1011.145263671875	-337.5006408691407	514.1708984375001	-1006.879760742188	-394.886688232422	474.2504882812501	-953.8913574218752	-580.1629028320314	460.7875366210939	-931.472839355469	-540.2163696289064	438.1006774902345	-856.7744750976565	-635.3339843750001	498.6679992675782	-868.830261230469	-542.3034667968751	283.6515502929688	-883.4939575195315	-562.3071289062501	286.4843139648438	-921.764343261719	-621.7637329101564	314.5842895507813	-948.7637939453127	-274.5235290527344	801.8779907226565	-628.9481201171876	-230.2056579589844	751.4913330078126	-635.5913085937501	-199.8380279541016	758.6823120117189	-645.2913208007814	-252.4652404785157	670.8980712890626	-654.1051635742189	-280.4627380371094	531.8245239257814	-688.8480224609376	-259.1729736328126	536.4982910156251	-805.9080810546877	-258.3966064453126	321.7882080078126	-731.2346801757814	-347.9334716796876	262.5069580078126	-721.4842529296876	-303.8122558593751	249.9423065185547	-725.7045288085939	-293.9028930664063	205.5989685058594	-766.0755004882814	-369.1582641601563	118.3265533447266	-744.5620117187501	-344.1653747558594	137.1297912597657	-830.6123046875002	-440.7918701171876	98.56568908691409	-795.6457519531252	-215.5643463134766	51.13114166259767	-807.958679199219	-218.9505462646485	55.07896423339845	-761.5296020507814	-274.4665832519532	37.19105911254884	-710.0833129882814	-213.073959350586	629.1043701171876	-1022.511108398438	-271.3425598144532	1524.330932617188	-720.3906860351564	nan	nan	nan	nan	nan	nan	
1477	7.38	-210.4875183105469	1774.9521484375	-651.1970214843751	-371.4136047363282	1754.804931640625	-769.410339355469	-341.8769531250001	1757.375	-630.6231689453126	-414.4748535156251	1582.759765625	-706.9274291992189	-428.1738891601564	1275.559448242188	-744.6575927734376	-347.9590148925782	1596.421752929688	-870.165710449219	-189.9503631591797	1552.787109375	-989.987731933594	-164.6533203125	1587.374267578125	-962.7888793945315	-120.793212890625	1562.795043945313	-994.8397216796877	-53.73541259765626	1572.195434570313	-994.2437744140627	-46.79941558837891	1501.067504882813	-960.0728759765627	226.0952453613282	1604.583618164063	-907.1822509765627	224.8982849121094	1613.879028320313	-982.988952636719	297.6539306640626	1654.171142578125	-899.9881591796877	-289.5993957519532	1565.40673828125	-544.9447631835939	-128.0482177734375	1488.286376953125	-454.2805786132814	-102.0868911743164	1525.764770507813	-474.3064575195314	-58.43309020996095	1488.76708984375	-453.9776916503907	4.279221057891847	1507.444946289063	-463.2874755859376	11.6043586730957	1445.171875	-510.3707580566407	283.3677368164063	1577.169799804688	-562.2222290039064	290.7160949707032	1561.94140625	-487.6711730957032	361.9663696289063	1625.076416015625	-559.6078491210939	-276.4536132812501	1099.279174804688	-892.9007568359377	-246.8459777832032	1076.276489257813	-672.4485473632814	-443.0447692871095	1146.039794921875	-752.8184204101564	-449.6923217773439	1115.687255859375	-782.7852783203127	-441.4725952148439	1110.898559570313	-723.7633056640626	-285.8591613769532	838.4125976562502	-1005.185791015625	-231.1649627685547	776.1643066406252	-1026.481811523438	-185.0341949462891	788.9697265625002	-1023.037109375	-240.6091308593751	714.7722778320314	-1020.097717285156	-171.3244018554688	580.9035644531251	-925.2416992187502	-279.7670288085938	505.9590759277345	-1000.914733886719	-353.2642211914063	554.3249511718751	-1010.947814941406	-337.0625000000001	514.0669555664064	-1006.681213378906	-394.3835449218751	474.0862731933595	-953.633728027344	-579.7274169921876	460.5247497558595	-931.3655395507815	-539.6960449218751	437.8181152343751	-856.6296997070315	-635.3599853515626	498.0346679687501	-868.5751953125002	-540.6388549804689	283.5092468261719	-884.5477294921877	-560.4068603515626	287.2145690917969	-922.489685058594	-620.0985717773439	314.3166809082032	-949.741149902344	-274.5243835449219	801.871276855469	-628.9461669921876	-230.0762634277344	751.9342041015626	-635.3576660156251	-199.8255004882813	758.6995239257814	-645.2084350585939	-252.4982604980469	670.9071044921876	-654.0682373046876	-280.4309082031251	531.8084106445314	-688.8189697265626	-259.0138854980469	536.4340820312501	-805.8870239257815	-258.3987426757813	321.7971191406251	-731.1416625976564	-347.9941711425782	262.5102539062501	-721.4064941406251	-303.8197021484376	249.9410858154297	-725.6036376953126	-293.9238281250001	205.6047973632813	-766.0405273437501	-369.2160034179688	118.2993316650391	-744.5593261718751	-343.9509887695313	137.4208221435547	-830.4358520507815	-440.8480224609376	98.53835296630862	-795.5650634765627	-215.5913696289063	51.14426422119142	-807.9226074218752	-218.9568328857422	55.08821105957033	-761.5260620117189	-274.4723205566407	37.18060684204102	-710.0942382812501	-212.6169433593751	629.0607910156251	-1022.303100585938	-271.5017089843751	1524.388427734375	-720.4680175781251	nan	nan	nan	nan	nan	nan	
